<?xml version="1.0" encoding="UTF-8" standalone="no"?>
<!DOCTYPE svg PUBLIC "-//W3C//DTD SVG 1.1//EN"
 "http://www.w3.org/Graphics/SVG/1.1/DTD/svg11.dtd">
<!-- Generated by graphviz version 2.43.0 (0)
 -->
<!-- Title: g Pages: 1 -->
<svg width="451pt" height="490pt"
 viewBox="0.00 0.00 451.00 490.00" xmlns="http://www.w3.org/2000/svg" xmlns:xlink="http://www.w3.org/1999/xlink">
<g id="graph0" class="graph" transform="scale(1 1) rotate(0) translate(4 486)">
<title>g</title>
<polygon fill="white" stroke="transparent" points="-4,4 -4,-486 447,-486 447,4 -4,4"/>
<g id="clust1" class="cluster">
<title>cluster_0</title>
<polygon fill="none" stroke="black" points="8,-64 8,-438 435,-438 435,-64 8,-64"/>
<text text-anchor="middle" x="221.5" y="-422.8" font-family="Times,serif" font-size="14.00">Run()</text>
</g>
<g id="clust2" class="cluster">
<title>cluster_1</title>
<polygon fill="none" stroke="black" points="16,-72 16,-291 233,-291 233,-72 16,-72"/>
<text text-anchor="middle" x="124.5" y="-275.8" font-family="Times,serif" font-size="14.00">handle this widget</text>
</g>
<!-- start -->
<g id="node1" class="node">
<title>start</title>
<ellipse fill="lightgrey" stroke="black" cx="251" cy="-464" rx="18" ry="18"/>
</g>
<!-- getPreferedWidth -->
<g id="node3" class="node">
<title>getPreferedWidth</title>
<polygon fill="none" stroke="black" points="330,-407 172,-407 172,-371 330,-371 330,-407"/>
<text text-anchor="middle" x="251" y="-385.3" font-family="Times,serif" font-size="14.00">GetPreferedWidth()</text>
</g>
<!-- start&#45;&gt;getPreferedWidth -->
<g id="edge1" class="edge">
<title>start&#45;&gt;getPreferedWidth</title>
<path fill="none" stroke="black" d="M251,-445.7C251,-437.25 251,-426.87 251,-417.37"/>
<polygon fill="black" stroke="black" points="254.5,-417.18 251,-407.18 247.5,-417.18 254.5,-417.18"/>
</g>
<!-- end -->
<g id="node2" class="node">
<title>end</title>
<ellipse fill="lightgrey" stroke="black" cx="244" cy="-22" rx="18" ry="18"/>
<ellipse fill="none" stroke="black" cx="244" cy="-22" rx="22" ry="22"/>
</g>
<!-- setMaximumWidth -->
<g id="node4" class="node">
<title>setMaximumWidth</title>
<polygon fill="none" stroke="black" points="333.5,-335 168.5,-335 168.5,-299 333.5,-299 333.5,-335"/>
<text text-anchor="middle" x="251" y="-313.3" font-family="Times,serif" font-size="14.00">SetMaximumWidth()</text>
</g>
<!-- getPreferedWidth&#45;&gt;setMaximumWidth -->
<g id="edge2" class="edge">
<title>getPreferedWidth&#45;&gt;setMaximumWidth</title>
<path fill="none" stroke="black" d="M251,-370.7C251,-362.98 251,-353.71 251,-345.11"/>
<polygon fill="black" stroke="black" points="254.5,-345.1 251,-335.1 247.5,-345.1 254.5,-345.1"/>
</g>
<!-- handleOtherWidgets -->
<g id="node5" class="node">
<title>handleOtherWidgets</title>
<text text-anchor="middle" x="325" y="-238.3" font-family="Times,serif" font-size="14.00">handle other widgets</text>
</g>
<!-- setMaximumWidth&#45;&gt;handleOtherWidgets -->
<g id="edge3" class="edge">
<title>setMaximumWidth&#45;&gt;handleOtherWidgets</title>
<path fill="none" stroke="black" d="M268.54,-298.7C278.03,-289.34 289.91,-277.62 300.32,-267.34"/>
<polygon fill="black" stroke="black" points="302.93,-269.69 307.59,-260.18 298.01,-264.71 302.93,-269.69"/>
</g>
<!-- setFocus -->
<g id="node6" class="node">
<title>setFocus</title>
<polygon fill="none" stroke="black" points="223,-260 131,-260 131,-224 223,-224 223,-260"/>
<text text-anchor="middle" x="177" y="-238.3" font-family="Times,serif" font-size="14.00">SetFocus()</text>
</g>
<!-- setMaximumWidth&#45;&gt;setFocus -->
<g id="edge5" class="edge">
<title>setMaximumWidth&#45;&gt;setFocus</title>
<path fill="none" stroke="black" d="M233.46,-298.7C223.97,-289.34 212.09,-277.62 201.68,-267.34"/>
<polygon fill="black" stroke="black" points="203.99,-264.71 194.41,-260.18 199.07,-269.69 203.99,-264.71"/>
</g>
<!-- handleOtherWidgets&#45;&gt;end -->
<g id="edge15" class="edge">
<title>handleOtherWidgets&#45;&gt;end</title>
<path fill="none" stroke="black" d="M318.64,-223.89C304.85,-186.77 272.03,-98.45 254.88,-52.27"/>
<polygon fill="black" stroke="black" points="258.13,-50.98 251.36,-42.82 251.57,-53.41 258.13,-50.98"/>
</g>
<!-- handleOtherWidgets&#45;&gt;handleOtherWidgets -->
<g id="edge4" class="edge">
<title>handleOtherWidgets&#45;&gt;handleOtherWidgets</title>
<path fill="none" stroke="black" d="M409.03,-253.83C419.85,-251.78 427,-247.84 427,-242 427,-238.17 423.92,-235.16 418.75,-232.96"/>
<polygon fill="black" stroke="black" points="419.61,-229.56 409.03,-230.17 417.68,-236.29 419.61,-229.56"/>
</g>
<!-- handleOtherWidgets&#45;&gt;setFocus -->
<g id="edge6" class="edge">
<title>handleOtherWidgets&#45;&gt;setFocus</title>
<path fill="none" stroke="black" d="M240.74,-242C238.28,-242 235.82,-242 233.36,-242"/>
<polygon fill="black" stroke="black" points="233.25,-238.5 223.25,-242 233.25,-245.5 233.25,-238.5"/>
</g>
<!-- awaitInput -->
<g id="node7" class="node">
<title>awaitInput</title>
<text text-anchor="middle" x="158" y="-166.3" font-family="Times,serif" font-size="14.00">await input</text>
</g>
<!-- setFocus&#45;&gt;awaitInput -->
<g id="edge7" class="edge">
<title>setFocus&#45;&gt;awaitInput</title>
<path fill="none" stroke="black" d="M172.3,-223.7C170.19,-215.9 167.64,-206.51 165.28,-197.83"/>
<polygon fill="black" stroke="black" points="168.64,-196.84 162.64,-188.1 161.88,-198.67 168.64,-196.84"/>
</g>
<!-- awaitInput&#45;&gt;awaitInput -->
<g id="edge8" class="edge">
<title>awaitInput&#45;&gt;awaitInput</title>
<path fill="none" stroke="black" d="M207.08,-183.06C217.49,-181.74 225,-177.38 225,-170 225,-165.27 221.92,-161.78 216.96,-159.54"/>
<polygon fill="black" stroke="black" points="217.64,-156.1 207.08,-156.94 215.86,-162.87 217.64,-156.1"/>
</g>
<!-- putChar -->
<g id="node8" class="node">
<title>putChar</title>
<polygon fill="none" stroke="black" points="110,-116 24,-116 24,-80 110,-80 110,-116"/>
<text text-anchor="middle" x="67" y="-94.3" font-family="Times,serif" font-size="14.00">PutChar()</text>
</g>
<!-- awaitInput&#45;&gt;putChar -->
<g id="edge9" class="edge">
<title>awaitInput&#45;&gt;putChar</title>
<path fill="none" stroke="black" d="M129.84,-151.88C117.46,-143.06 103.14,-132.18 91.24,-122.59"/>
<polygon fill="black" stroke="black" points="93.39,-119.83 83.44,-116.19 88.96,-125.24 93.39,-119.83"/>
</g>
<!-- putAction -->
<g id="node9" class="node">
<title>putAction</title>
<polygon fill="none" stroke="black" points="225.5,-116 128.5,-116 128.5,-80 225.5,-80 225.5,-116"/>
<text text-anchor="middle" x="177" y="-94.3" font-family="Times,serif" font-size="14.00">PutAction()</text>
</g>
<!-- awaitInput&#45;&gt;putAction -->
<g id="edge11" class="edge">
<title>awaitInput&#45;&gt;putAction</title>
<path fill="none" stroke="black" d="M156.78,-151.7C158.09,-143.9 160.42,-134.51 163.13,-125.83"/>
<polygon fill="black" stroke="black" points="166.54,-126.7 166.46,-116.1 159.91,-124.43 166.54,-126.7"/>
</g>
<!-- putChar&#45;&gt;awaitInput -->
<g id="edge10" class="edge">
<title>putChar&#45;&gt;awaitInput</title>
<path fill="none" stroke="black" d="M95.13,-116.1C107.47,-124.89 121.74,-135.73 133.63,-145.31"/>
<polygon fill="black" stroke="black" points="131.47,-148.06 141.42,-151.7 135.91,-142.65 131.47,-148.06"/>
</g>
<!-- putAction&#45;&gt;end -->
<g id="edge14" class="edge">
<title>putAction&#45;&gt;end</title>
<path fill="none" stroke="black" d="M192.54,-79.84C201.5,-69.94 212.89,-57.36 222.68,-46.55"/>
<polygon fill="black" stroke="black" points="225.34,-48.82 229.46,-39.06 220.16,-44.12 225.34,-48.82"/>
</g>
<!-- putAction&#45;&gt;handleOtherWidgets -->
<g id="edge13" class="edge">
<title>putAction&#45;&gt;handleOtherWidgets</title>
<path fill="none" stroke="black" d="M195.59,-116.07C206.79,-126.4 221.29,-139.88 234,-152 256.67,-173.62 282.13,-198.58 300.35,-216.56"/>
<polygon fill="black" stroke="black" points="298.11,-219.27 307.68,-223.81 303.03,-214.29 298.11,-219.27"/>
</g>
<!-- putAction&#45;&gt;awaitInput -->
<g id="edge12" class="edge">
<title>putAction&#45;&gt;awaitInput</title>
<path fill="none" stroke="black" d="M178.25,-116.1C176.94,-123.96 174.59,-133.46 171.85,-142.23"/>
<polygon fill="black" stroke="black" points="168.53,-141.1 168.61,-151.7 175.16,-143.37 168.53,-141.1"/>
</g>
</g>
</svg>
